:SAMPLES-PER-SECOND 30
:FULLY-SPECIFIED
:DEGREES
425
root  0.289581 34.4419 28.4698 4.57546 18.2745 -0.9088
LeftUpLeg  -13.7361 4.28231 5.12162
LeftLeg  10.3357 -5.10234 -0.595609
LeftFoot  7.85987 0.0439972 -0.700479
LeftToes  -21.494 2.60077e-006 -1.42232e-007
Spine  3.08755 3.57602 -1.97173
Spine1  5.95021 7.27456 -3.62369
RightShoulder  0.0201687 7.4773 0.178115
RightArm  1.17941 -21.5826 44.5133
RightForeArm  58.2769 66.9768 24.6361
RightHand  -0.244482 2.1349 -12.7332
LeftShoulder1  0.0403452 0.573733 -9.84933
LeftArm  -23.4959 11.4516 -65.3371
LeftForeArm  31.9355 -12.8603 -2.3011
LeftHand  0.204222 4.03683 5.41058
HEad  -8.94896 -32.6575 5.42694
RightUpLeg  -7.68663 -10.9783 0.1533
RightLeg  12.3409 -2.27691 -0.345295
RightFoot  -1.09866 0.0106203 0.0767549
RightToes  -28.786 -0.131865 -0.242775
426
root  0.256128 34.4397 28.5375 4.6012 19.1201 -0.987964
LeftUpLeg  -13.7935 3.95173 5.25292
LeftLeg  10.2014 -5.5996 -0.64007
LeftFoot  7.92932 0.0481958 -0.771123
LeftToes  -21.5196 2.60077e-006 -1.42232e-007
Spine  3.10474 3.695 -1.83761
Spine1  5.99116 7.5522 -3.4121
RightShoulder  0.0224407 7.79779 0.674586
RightArm  -1.56967 -20.7875 46.0731
RightForeArm  56.7875 65.2337 22.5674
RightHand  -0.181207 1.58095 -12.7591
LeftShoulder1  0.0361591 0.639113 -9.77908
LeftArm  -23.8324 12.8349 -64.9624
LeftForeArm  32.2588 -12.6575 -2.2634
LeftHand  0.207063 4.00879 5.53175
HEad  -8.39147 -32.3078 5.25664
RightUpLeg  -7.47536 -11.1796 0.33588
RightLeg  12.1311 -2.88631 -0.427065
RightFoot  -1.12291 0.00915847 0.0913997
RightToes  -28.4242 -0.130935 -0.24135
427
root  0.223751 34.4421 28.5993 4.56771 19.6844 -1.04879
LeftUpLeg  -13.775 3.62369 5.39631
LeftLeg  10.1314 -5.86212 -0.662662
LeftFoot  8.03007 0.0505727 -0.813358
LeftToes  -21.9405 2.60077e-006 -1.42232e-007
Spine  3.06337 3.86804 -1.70158
Spine1  5.91754 7.93127 -3.1914
RightShoulder  0.0258304 8.08403 0.852734
RightArm  -3.62327 -19.6153 48.1064
RightForeArm  55.6279 63.6565 20.9406
RightHand  -0.111633 0.990807 -12.569
LeftShoulder1  0.0309425 0.762145 -9.53532
LeftArm  -24.2419 14.0321 -64.8864
LeftForeArm  32.5709 -12.1249 -2.16505
LeftHand  0.208888 4.0986 5.45353
HEad  -6.8211 -31.843 4.77054
RightUpLeg  -7.27671 -11.0095 0.499576
RightLeg  12.0003 -3.64329 -0.530664
RightFoot  -1.10893 0.00761706 0.106693
RightToes  -28.2529 -0.13014 -0.239642
428
root  0.199918 34.4466 28.6662 4.55104 20.1233 -1.05521
LeftUpLeg  -13.7206 3.48231 5.46374
LeftLeg  10.0712 -6.15442 -0.688979
LeftFoot  8.06843 0.0528511 -0.853953
LeftToes  -22.1232 2.60077e-006 -1.42232e-007
Spine  2.92377 4.02282 -1.61338
Spine1  5.64556 8.26907 -3.06058
RightShoulder  0.0289172 8.17894 0.940807
RightArm  -5.21015 -18.2069 50.4614
RightForeArm  55.1854 62.3297 19.7168
RightHand  -0.115127 0.998696 -12.8655
LeftShoulder1  0.0251763 0.981314 -9.31957
LeftArm  -24.8173 15.1044 -64.7976
LeftForeArm  33.1336 -11.4351 -2.03816
LeftHand  0.213774 4.24767 5.38087
HEad  -4.21983 -31.2974 4.27768
RightUpLeg  -7.11422 -11.0604 0.581904
RightLeg  11.963 -4.01864 -0.582656
RightFoot  -1.16804 0.00614114 0.120374
RightToes  -27.8656 -0.129503 -0.236861
429
root  0.177564 34.4482 28.7295 4.55845 20.4462 -1.07245
LeftUpLeg  -13.6889 3.41405 5.53304
LeftLeg  10.0295 -6.38416 -0.709844
LeftFoot  8.0524 0.0542071 -0.880095
LeftToes  -22.0018 2.60077e-006 -1.42232e-007
Spine  2.76484 4.15159 -1.55642
Spine1  5.32637 8.55762 -2.9921
RightShoulder  0.0316994 8.07329 1.18424
RightArm  -6.92191 -16.5669 52.8603
RightForeArm  55.0271 61.4848 18.9969
RightHand  -0.119301 1.02536 -12.9853
LeftShoulder1  0.018946 1.34098 -9.32071
LeftArm  -25.7633 15.9187 -64.5832
LeftForeArm  33.8061 -10.8577 -1.93229
LeftHand  0.219692 4.3905 5.34797
HEad  -1.66463 -30.7123 3.92828
RightUpLeg  -6.98875 -10.9346 0.66856
RightLeg  11.9167 -4.43989 -0.640037
RightFoot  -1.21399 0.00454298 0.135352
RightToes  -27.5405 -0.128963 -0.235011
